<?xml version="1.0" encoding="UTF-8" standalone="no"?>
<svg
   xmlns:dc="http://purl.org/dc/elements/1.1/"
   xmlns:cc="http://creativecommons.org/ns#"
   xmlns:rdf="http://www.w3.org/1999/02/22-rdf-syntax-ns#"
   xmlns:svg="http://www.w3.org/2000/svg"
   xmlns="http://www.w3.org/2000/svg"
   xmlns:sodipodi="http://sodipodi.sourceforge.net/DTD/sodipodi-0.dtd"
   xmlns:inkscape="http://www.inkscape.org/namespaces/inkscape"
   id="Layer_1"
   enable-background="new 0 0 512 512"
   height="32"
   viewBox="0 0 32 32"
   width="32"
   version="1.1"
   sodipodi:docname="about.svg"
   inkscape:version="0.92.4 (5da689c313, 2019-01-14)">
  <metadata
     id="metadata15">
    <rdf:RDF>
      <cc:Work
         rdf:about="">
        <dc:format>image/svg+xml</dc:format>
        <dc:type
           rdf:resource="http://purl.org/dc/dcmitype/StillImage" />
        <dc:title />
      </cc:Work>
    </rdf:RDF>
  </metadata>
  <defs
     id="defs13" />
  <sodipodi:namedview
     pagecolor="#ffffff"
     bordercolor="#666666"
     borderopacity="1"
     objecttolerance="10"
     gridtolerance="10"
     guidetolerance="10"
     inkscape:pageopacity="0"
     inkscape:pageshadow="2"
     inkscape:window-width="1920"
     inkscape:window-height="1017"
     id="namedview11"
     showgrid="false"
     inkscape:zoom="3.6875"
     inkscape:cx="52.106909"
     inkscape:cy="23.912305"
     inkscape:window-x="-8"
     inkscape:window-y="-8"
     inkscape:window-maximized="1"
     inkscape:current-layer="Layer_1" />
  <g
     id="g8"
     transform="matrix(0.04131355,0,0,0.04131355,5.6949157,5.6949155)"
     style="fill:#00aa88">
    <path
       d="M 256,512 C 187.62,512 123.333,485.372 74.98,437.02 26.627,388.668 0,324.38 0,256 0,187.62 26.628,123.333 74.98,74.98 123.332,26.627 187.62,0 256,0 324.38,0 388.667,26.628 437.02,74.98 485.373,123.332 512,187.62 512,256 512,324.38 485.372,388.667 437.02,437.02 388.668,485.373 324.38,512 256,512 Z M 256,32 C 132.486,32 32,132.486 32,256 32,379.514 132.486,480 256,480 379.514,480 480,379.514 480,256 480,132.486 379.514,32 256,32 Z"
       id="path2"
       inkscape:connector-curvature="0"
       style="fill:#00aa88" />
    <path
       d="m 256,368 c -8.836,0 -16,-7.164 -16,-16 0,-40.386 15.727,-78.354 44.285,-106.912 C 302.157,227.215 312,203.453 312,178.177 312,150.509 289.491,128 261.823,128 h -3.646 C 230.509,128 208,150.509 208,178.177 V 184 c 0,8.836 -7.164,16 -16,16 -8.836,0 -16,-7.164 -16,-16 v -5.823 C 176,132.864 212.864,96 258.177,96 h 3.646 C 307.136,96 344,132.864 344,178.177 344,212 330.829,243.799 306.912,267.716 284.398,290.229 272,320.162 272,352 c 0,8.836 -7.164,16 -16,16 z"
       id="path4"
       inkscape:connector-curvature="0"
       style="fill:#00aa88" />
    <path
       d="m 256.02,432 c -8.836,0 -16.005,-7.164 -16.005,-16 0,-8.836 7.158,-16 15.995,-16 h 0.01 c 8.836,0 16,7.164 16,16 0,8.836 -7.164,16 -16,16 z"
       id="path6"
       inkscape:connector-curvature="0"
       style="fill:#00aa88" />
  </g>
</svg>
