<?xml version="1.0" encoding="UTF-8" standalone="no"?>
<!-- Created with Inkscape (http://www.inkscape.org/) -->

<svg
   xmlns:dc="http://purl.org/dc/elements/1.1/"
   xmlns:cc="http://creativecommons.org/ns#"
   xmlns:rdf="http://www.w3.org/1999/02/22-rdf-syntax-ns#"
   xmlns:svg="http://www.w3.org/2000/svg"
   xmlns="http://www.w3.org/2000/svg"
   xmlns:sodipodi="http://sodipodi.sourceforge.net/DTD/sodipodi-0.dtd"
   xmlns:inkscape="http://www.inkscape.org/namespaces/inkscape"
   width="32"
   height="32"
   viewBox="0 0 8.4666665 8.4666669"
   version="1.1"
   id="svg8"
   inkscape:version="0.92.4 (5da689c313, 2019-01-14)"
   sodipodi:docname="add_disabled.svg">
  <defs
     id="defs2" />
  <sodipodi:namedview
     id="base"
     pagecolor="#ffffff"
     bordercolor="#666666"
     borderopacity="1.0"
     inkscape:pageopacity="0.0"
     inkscape:pageshadow="2"
     inkscape:zoom="16"
     inkscape:cx="8.855579"
     inkscape:cy="17.361523"
     inkscape:document-units="px"
     inkscape:current-layer="layer2"
     showgrid="false"
     units="px"
     inkscape:window-width="1920"
     inkscape:window-height="1017"
     inkscape:window-x="-8"
     inkscape:window-y="-8"
     inkscape:window-maximized="1" />
  <metadata
     id="metadata5">
    <rdf:RDF>
      <cc:Work
         rdf:about="">
        <dc:format>image/svg+xml</dc:format>
        <dc:type
           rdf:resource="http://purl.org/dc/dcmitype/StillImage" />
        <dc:title />
      </cc:Work>
    </rdf:RDF>
  </metadata>
  <g
     inkscape:label="Layer 1"
     inkscape:groupmode="layer"
     id="layer1"
     transform="translate(0,-288.53332)"
     style="display:none" />
  <g
     inkscape:groupmode="layer"
     id="layer2"
     inkscape:label="Layer 2"
     style="display:inline">
    <path
       style="fill:none;stroke:#000000;stroke-width:0.19894488px;stroke-linecap:butt;stroke-linejoin:miter;stroke-opacity:1"
       d="M 4.1393551,5.16289 H 2.2209577 l -0.2486812,0.24868 0.3996661,2.4956903 0.1820701,0.18207 h 1.5853424"
       id="path37-7"
       inkscape:connector-curvature="0" />
    <path
       style="fill:none;stroke:#000000;stroke-width:0.19894488px;stroke-linecap:butt;stroke-linejoin:miter;stroke-opacity:1"
       d="M 4.1393551,5.16289 H 6.0577512 L 6.3064331,5.41157 5.9067662,7.9072603 5.7246961,8.0893303 H 4.1393551"
       id="path37-2-1"
       inkscape:connector-curvature="0" />
    <path
       style="fill:none;stroke:#000000;stroke-width:0.19894488px;stroke-linecap:butt;stroke-linejoin:miter;stroke-opacity:1"
       d="M 4.2059661,5.91337 H 3.1313081"
       id="path54-7"
       inkscape:connector-curvature="0" />
    <path
       style="fill:none;stroke:#000000;stroke-width:0.19894488px;stroke-linecap:butt;stroke-linejoin:miter;stroke-opacity:1"
       d="M 4.1704401,6.2952699 H 3.4332781"
       id="path58-3"
       inkscape:connector-curvature="0" />
    <path
       style="fill:none;stroke:#000000;stroke-width:0.19894488px;stroke-linecap:butt;stroke-linejoin:miter;stroke-opacity:1"
       d="m 4.1349141,5.91337 h 1.074657"
       id="path54-1-9"
       inkscape:connector-curvature="0" />
    <path
       style="fill:none;stroke:#000000;stroke-width:0.19894488px;stroke-linecap:butt;stroke-linejoin:miter;stroke-opacity:1"
       d="m 4.1704401,6.2952699 h 0.737161"
       id="path58-9-2"
       inkscape:connector-curvature="0" />
    <path
       style="fill:none;stroke:#000000;stroke-width:0.19894488px;stroke-linecap:butt;stroke-linejoin:miter;stroke-opacity:1"
       d="M 4.1659991,4.6211199 H 2.7094384 L 2.447435,4.8831198"
       id="path118-6"
       inkscape:connector-curvature="0" />
    <path
       style="fill:none;stroke:#000000;stroke-width:0.19894488px;stroke-linecap:butt;stroke-linejoin:miter;stroke-opacity:1"
       d="M 4.1659991,4.6211199 H 5.6225592 L 5.8845631,4.8831198"
       id="path118-1-3"
       inkscape:connector-curvature="0" />
    <path
       style="fill:none;stroke:#000000;stroke-width:0.19894488px;stroke-linecap:butt;stroke-linejoin:miter;stroke-opacity:1"
       d="M 4.1393551,4.19481 H 3.1890377 L 3.0114083,4.3724399"
       id="path153-2"
       inkscape:connector-curvature="0" />
    <path
       style="fill:none;stroke:#000000;stroke-width:0.19894488px;stroke-linecap:butt;stroke-linejoin:miter;stroke-opacity:1"
       d="M 4.1393551,4.19481 H 5.0896712 L 5.2673011,4.3724399"
       id="path153-4-5"
       inkscape:connector-curvature="0" />
    <g
       transform="matrix(0.00677522,0,0,0.00677522,2.4289612,0.39751637)"
       id="g6"
       style="fill:#808080">
      <g
         id="g4"
         style="fill:#808080">
        <path
           inkscape:connector-curvature="0"
           d="m 479.046,283.925 c -1.664,-3.989 -5.547,-6.592 -9.856,-6.592 H 352.305 V 10.667 C 352.305,4.779 347.526,0 341.638,0 H 170.971 c -5.888,0 -10.667,4.779 -10.667,10.667 V 277.334 H 42.971 c -4.309,0 -8.192,2.603 -9.856,6.571 -1.643,3.989 -0.747,8.576 2.304,11.627 l 212.8,213.504 c 2.005,2.005 4.715,3.136 7.552,3.136 2.837,0 5.547,-1.131 7.552,-3.115 L 476.742,295.553 c 3.051,-3.052 3.968,-7.638 2.304,-11.628 z"
           id="path2"
           style="fill:#808080" />
      </g>
    </g>
    <g
       transform="matrix(0.00677522,0,0,0.00677522,6.2784776,-0.03679661)"
       id="g8" />
    <g
       transform="matrix(0.00677522,0,0,0.00677522,6.2784776,-0.03679661)"
       id="g10" />
    <g
       transform="matrix(0.00677522,0,0,0.00677522,6.2784776,-0.03679661)"
       id="g12" />
    <g
       transform="matrix(0.00677522,0,0,0.00677522,6.2784776,-0.03679661)"
       id="g14" />
    <g
       transform="matrix(0.00677522,0,0,0.00677522,6.2784776,-0.03679661)"
       id="g16" />
    <g
       transform="matrix(0.00677522,0,0,0.00677522,6.2784776,-0.03679661)"
       id="g18" />
    <g
       transform="matrix(0.00677522,0,0,0.00677522,6.2784776,-0.03679661)"
       id="g20" />
    <g
       transform="matrix(0.00677522,0,0,0.00677522,6.2784776,-0.03679661)"
       id="g22" />
    <g
       transform="matrix(0.00677522,0,0,0.00677522,6.2784776,-0.03679661)"
       id="g24" />
    <g
       transform="matrix(0.00677522,0,0,0.00677522,6.2784776,-0.03679661)"
       id="g26" />
    <g
       transform="matrix(0.00677522,0,0,0.00677522,6.2784776,-0.03679661)"
       id="g28" />
    <g
       transform="matrix(0.00677522,0,0,0.00677522,6.2784776,-0.03679661)"
       id="g30" />
    <g
       transform="matrix(0.00677522,0,0,0.00677522,6.2784776,-0.03679661)"
       id="g32" />
    <g
       transform="matrix(0.00677522,0,0,0.00677522,6.2784776,-0.03679661)"
       id="g34" />
    <g
       transform="matrix(0.00677522,0,0,0.00677522,6.2784776,-0.03679661)"
       id="g36" />
  </g>
</svg>
