<?xml version="1.0" encoding="UTF-8" standalone="no"?>
<svg
   xmlns:dc="http://purl.org/dc/elements/1.1/"
   xmlns:cc="http://creativecommons.org/ns#"
   xmlns:rdf="http://www.w3.org/1999/02/22-rdf-syntax-ns#"
   xmlns:svg="http://www.w3.org/2000/svg"
   xmlns="http://www.w3.org/2000/svg"
   xmlns:sodipodi="http://sodipodi.sourceforge.net/DTD/sodipodi-0.dtd"
   xmlns:inkscape="http://www.inkscape.org/namespaces/inkscape"
   height="32"
   viewBox="-78 -18 23.999999 24.000079"
   width="32"
   version="1.1"
   id="svg4"
   sodipodi:docname="file.svg"
   inkscape:version="0.92.4 (5da689c313, 2019-01-14)">
  <metadata
     id="metadata10">
    <rdf:RDF>
      <cc:Work
         rdf:about="">
        <dc:format>image/svg+xml</dc:format>
        <dc:type
           rdf:resource="http://purl.org/dc/dcmitype/StillImage" />
        <dc:title></dc:title>
      </cc:Work>
    </rdf:RDF>
  </metadata>
  <defs
     id="defs8" />
  <sodipodi:namedview
     pagecolor="#ffffff"
     bordercolor="#666666"
     borderopacity="1"
     objecttolerance="10"
     gridtolerance="10"
     guidetolerance="10"
     inkscape:pageopacity="0"
     inkscape:pageshadow="2"
     inkscape:window-width="1920"
     inkscape:window-height="1017"
     id="namedview6"
     showgrid="false"
     units="px"
     inkscape:zoom="7.15188"
     inkscape:cx="50.2067"
     inkscape:cy="2.3095574"
     inkscape:window-x="-8"
     inkscape:window-y="-8"
     inkscape:window-maximized="1"
     inkscape:current-layer="svg4" />
  <path
     d="m -63.430231,-15.997037 -0.005,-0.0049 c -0.09144,-0.09431 -0.217592,-0.147084 -0.349209,-0.145568 -0.01622,-6.83e-4 -0.0326,6.84e-4 -0.04852,0.005 h -7.451204 c -1.339368,3.42e-4 -2.424899,1.085991 -2.425509,2.425508 V 1.8061878 c 7.22e-4,1.3393671 1.086141,2.4250533 2.425509,2.4255081 h 10.803336 c 1.339367,-5.029e-4 2.425055,-1.086141 2.42551,-2.4255081 V -10.428255 c -8.83e-4,-0.128432 -0.05125,-0.251707 -0.140715,-0.344203 z m 0.130857,1.503889 3.599445,3.58974 h -2.144078 c -0.802741,-0.0024 -1.453091,-0.652624 -1.455367,-1.455214 z m 2.823391,17.7499098 h -10.808188 c -0.802746,-0.00224 -1.45279,-0.6526248 -1.455365,-1.4553661 V -13.721946 c 0.0024,-0.802591 0.652619,-1.45294 1.455365,-1.455215 h 7.014656 v 2.818539 c 5.03e-4,1.339216 1.086139,2.4249019 2.425508,2.4255079 h 2.818537 V 1.8013957 c 0.0016,0.8024372 -0.648074,1.4543048 -1.450513,1.4553661 z m 0,0"
     id="path2"
     inkscape:connector-curvature="0"
     style="stroke-width:0.03881783" />
</svg>
