<?xml version="1.0" encoding="UTF-8" standalone="no"?>
<!-- Created with Inkscape (http://www.inkscape.org/) -->

<svg
   xmlns:dc="http://purl.org/dc/elements/1.1/"
   xmlns:cc="http://creativecommons.org/ns#"
   xmlns:rdf="http://www.w3.org/1999/02/22-rdf-syntax-ns#"
   xmlns:svg="http://www.w3.org/2000/svg"
   xmlns="http://www.w3.org/2000/svg"
   xmlns:sodipodi="http://sodipodi.sourceforge.net/DTD/sodipodi-0.dtd"
   xmlns:inkscape="http://www.inkscape.org/namespaces/inkscape"
   width="32"
   height="32"
   viewBox="0 0 8.4666665 8.4666669"
   version="1.1"
   id="svg8"
   inkscape:version="0.92.4 (5da689c313, 2019-01-14)"
   sodipodi:docname="program_settings_disabled.svg">
  <defs
     id="defs2" />
  <sodipodi:namedview
     id="base"
     pagecolor="#ffffff"
     bordercolor="#666666"
     borderopacity="1.0"
     inkscape:pageopacity="0.0"
     inkscape:pageshadow="2"
     inkscape:zoom="15.839192"
     inkscape:cx="24.495327"
     inkscape:cy="21.299906"
     inkscape:document-units="px"
     inkscape:current-layer="layer2"
     showgrid="false"
     units="px"
     inkscape:window-width="1920"
     inkscape:window-height="1017"
     inkscape:window-x="-8"
     inkscape:window-y="-8"
     inkscape:window-maximized="1" />
  <metadata
     id="metadata5">
    <rdf:RDF>
      <cc:Work
         rdf:about="">
        <dc:format>image/svg+xml</dc:format>
        <dc:type
           rdf:resource="http://purl.org/dc/dcmitype/StillImage" />
        <dc:title />
      </cc:Work>
    </rdf:RDF>
  </metadata>
  <g
     inkscape:label="Layer 1"
     inkscape:groupmode="layer"
     id="layer1"
     transform="translate(0,-288.53332)"
     style="display:none" />
  <g
     inkscape:groupmode="layer"
     id="layer2"
     inkscape:label="Layer 2"
     style="display:inline">
    <path
       inkscape:connector-curvature="0"
       d="M 3.5533412,0.99954546 3.5148625,1.1996457 3.368636,1.9307815 C 3.1339049,2.0231342 2.9222585,2.1530087 2.7298543,2.3078933 L 2.0141112,2.0616152 1.8217071,2.0000451 1.7216581,2.1770567 1.2291035,3.0236354 1.1290546,3.200647 1.2752811,3.3314836 1.8294051,3.8163417 C 1.8091995,3.9423655 1.7832295,4.068392 1.7832295,4.20115 c 0,0.1327607 0.025993,0.258782 0.046176,0.3848083 L 1.2752811,5.0708168 1.1290546,5.2016534 1.2291035,5.378665 1.7216581,6.225243 1.8217071,6.4022548 2.0141112,6.3406845 2.7298543,6.0944064 C 2.9222585,6.2492913 3.1339031,6.3791647 3.368636,6.4715183 l 0.1462265,0.7311356 0.038479,0.2001004 H 4.9386511 L 4.9771298,7.2026539 5.1233564,6.4715183 C 5.3580901,6.3791657 5.5697352,6.2492911 5.7621394,6.0944057 l 0.715743,0.246278 0.1924042,0.06157 L 6.7703355,6.2252423 7.2628906,5.3786639 7.3629395,5.2016522 7.216713,5.0708183 6.662589,4.5859597 c 0.020206,-0.1260238 0.046175,-0.2520503 0.046175,-0.3848083 0,-0.1327607 -0.025993,-0.2587846 -0.046175,-0.3848081 L 7.2167138,3.3314842 7.3629404,3.2006494 7.2628889,3.0236377 6.7703347,2.1770593 6.6702858,2.0000477 6.4778791,2.0616168 5.762136,2.3078938 C 5.5697346,2.1530087 5.3580906,2.0231357 5.1233577,1.9307815 L 4.9771312,1.1996458 4.9386524,0.99954556 Z M 3.9535416,1.4921 h 0.5849088 l 0.1231378,0.6387817 0.030785,0.1462265 0.1385302,0.046174 c 0.2799485,0.087543 0.5339214,0.2356931 0.7465277,0.4309855 l 0.1077483,0.1000518 0.1385303,-0.046178 0.6233888,-0.215493 0.2924539,0.5002505 -0.4925546,0.4386815 -0.1154415,0.092352 0.038477,0.1462265 c 0.031744,0.1404544 0.046175,0.2837961 0.046175,0.4309852 0,0.1471885 -0.014417,0.2905298 -0.046175,0.4309855 L 6.139247,4.7783581 6.2469948,4.8707108 6.7395496,5.309392 6.4470955,5.8096429 5.8237069,5.5941499 5.6851766,5.5479722 5.5774288,5.6480211 C 5.3648272,5.8433193 5.1108515,5.9914714 4.8309035,6.0790153 L 4.6923733,6.1251903 4.6615882,6.2714168 4.5384504,6.9101982 H 3.9535416 L 3.8304042,6.2714184 3.7996196,6.1251913 3.6610883,6.0790145 C 3.3811393,5.9914706 3.1271659,5.8433193 2.9145595,5.6480293 L 2.8068118,5.5479803 2.6682815,5.5941553 2.0448924,5.8096458 1.7524385,5.3093949 2.2449937,4.8707137 2.3604351,4.7783605 2.3219563,4.6321337 C 2.2902092,4.4916793 2.2757813,4.3483373 2.2757813,4.2011485 c 0,-0.1471886 0.014417,-0.2905299 0.046174,-0.4309852 L 2.3604351,3.6239367 2.2449937,3.531584 1.7524385,3.0929029 2.0448924,2.592652 2.6682815,2.8081424 2.8068144,2.85432 2.9145622,2.7542685 C 3.1271665,2.558979 3.3811401,2.4108283 3.6610881,2.3232843 l 0.1385302,-0.046178 0.030785,-0.1462266 z m 0.292454,1.4776638 c -0.6772629,0 -1.2313865,0.5541237 -1.2313865,1.2313862 0,0.6772625 0.5541236,1.2313863 1.2313865,1.2313863 0.6772624,0 1.2313864,-0.5541238 1.2313864,-1.2313863 0,-0.6772625 -0.554124,-1.2313862 -1.2313864,-1.2313862 z m 0,0.4925543 c 0.4107827,0 0.7388319,0.3280492 0.7388319,0.7388319 0,0.4107828 -0.3280492,0.7388319 -0.7388319,0.7388319 -0.4107831,0 -0.7388319,-0.3280491 -0.7388319,-0.7388319 0,-0.4107827 0.3280488,-0.7388319 0.7388319,-0.7388319 z"
       id="path2"
       style="display:inline;fill:#808080;stroke-width:0.24627729" />
  </g>
</svg>
