<?xml version="1.0" encoding="UTF-8" standalone="no"?>
<!-- Created with Inkscape (http://www.inkscape.org/) -->

<svg
   xmlns:dc="http://purl.org/dc/elements/1.1/"
   xmlns:cc="http://creativecommons.org/ns#"
   xmlns:rdf="http://www.w3.org/1999/02/22-rdf-syntax-ns#"
   xmlns:svg="http://www.w3.org/2000/svg"
   xmlns="http://www.w3.org/2000/svg"
   xmlns:sodipodi="http://sodipodi.sourceforge.net/DTD/sodipodi-0.dtd"
   xmlns:inkscape="http://www.inkscape.org/namespaces/inkscape"
   width="32"
   height="32"
   viewBox="0 0 8.4666665 8.4666669"
   version="1.1"
   id="svg8"
   inkscape:version="0.92.4 (5da689c313, 2019-01-14)"
   sodipodi:docname="settings_disabled.svg">
  <defs
     id="defs2" />
  <sodipodi:namedview
     id="base"
     pagecolor="#ffffff"
     bordercolor="#666666"
     borderopacity="1.0"
     inkscape:pageopacity="0.0"
     inkscape:pageshadow="2"
     inkscape:zoom="31.678384"
     inkscape:cx="19.300783"
     inkscape:cy="23.632064"
     inkscape:document-units="px"
     inkscape:current-layer="layer2"
     showgrid="false"
     units="px"
     inkscape:window-width="1920"
     inkscape:window-height="1017"
     inkscape:window-x="-8"
     inkscape:window-y="-8"
     inkscape:window-maximized="1" />
  <metadata
     id="metadata5">
    <rdf:RDF>
      <cc:Work
         rdf:about="">
        <dc:format>image/svg+xml</dc:format>
        <dc:type
           rdf:resource="http://purl.org/dc/dcmitype/StillImage" />
        <dc:title />
      </cc:Work>
    </rdf:RDF>
  </metadata>
  <g
     inkscape:label="Layer 1"
     inkscape:groupmode="layer"
     id="layer1"
     transform="translate(0,-288.53332)"
     style="display:none" />
  <g
     inkscape:groupmode="layer"
     id="layer2"
     inkscape:label="Layer 2"
     style="display:inline">
    <path
       style="fill:none;stroke:#000000;stroke-width:0.19894488px;stroke-linecap:butt;stroke-linejoin:miter;stroke-opacity:1"
       d="M 4.139355,5.1628965 H 2.2209578 L 1.9722766,5.4115776 2.3719427,7.9072702 2.5540129,8.08934 H 4.139355"
       id="path37-6"
       inkscape:connector-curvature="0" />
    <path
       style="fill:none;stroke:#000000;stroke-width:0.19894488px;stroke-linecap:butt;stroke-linejoin:miter;stroke-opacity:1"
       d="M 4.139355,5.1628965 H 6.0577518 L 6.3064332,5.4115776 5.9067671,7.9072702 5.724697,8.08934 H 4.139355"
       id="path37-2-5"
       inkscape:connector-curvature="0" />
    <path
       style="fill:none;stroke:#000000;stroke-width:0.19894488px;stroke-linecap:butt;stroke-linejoin:miter;stroke-opacity:1"
       d="M 4.2059658,5.9133808 H 3.1313082"
       id="path54-3"
       inkscape:connector-curvature="0" />
    <path
       style="fill:none;stroke:#000000;stroke-width:0.19894488px;stroke-linecap:butt;stroke-linejoin:miter;stroke-opacity:1"
       d="M 4.1704398,6.2952835 H 3.4332781"
       id="path58-4"
       inkscape:connector-curvature="0" />
    <path
       style="fill:none;stroke:#000000;stroke-width:0.19894488px;stroke-linecap:butt;stroke-linejoin:miter;stroke-opacity:1"
       d="M 4.1349138,5.9133808 H 5.2095715"
       id="path54-1-8"
       inkscape:connector-curvature="0" />
    <path
       style="fill:none;stroke:#000000;stroke-width:0.19894488px;stroke-linecap:butt;stroke-linejoin:miter;stroke-opacity:1"
       d="M 4.1704398,6.2952835 H 4.9076017"
       id="path58-9-0"
       inkscape:connector-curvature="0" />
    <path
       style="fill:none;stroke:#000000;stroke-width:0.19894488px;stroke-linecap:butt;stroke-linejoin:miter;stroke-opacity:1"
       d="M 4.1659993,4.6211269 H 2.7094385 L 2.4474351,4.8831303"
       id="path118-7"
       inkscape:connector-curvature="0" />
    <path
       style="fill:none;stroke:#000000;stroke-width:0.19894488px;stroke-linecap:butt;stroke-linejoin:miter;stroke-opacity:1"
       d="M 4.1659993,4.6211269 H 5.6225601 L 5.8845635,4.8831303"
       id="path118-1-3"
       inkscape:connector-curvature="0" />
    <path
       style="fill:none;stroke:#000000;stroke-width:0.19894488px;stroke-linecap:butt;stroke-linejoin:miter;stroke-opacity:1"
       d="M 4.139355,4.1948165 H 3.1890378 L 3.0114084,4.3724461"
       id="path153-1"
       inkscape:connector-curvature="0" />
    <path
       style="fill:none;stroke:#000000;stroke-width:0.19894488px;stroke-linecap:butt;stroke-linejoin:miter;stroke-opacity:1"
       d="M 4.139355,4.1948165 H 5.0896721 L 5.2673014,4.3724461"
       id="path153-4-3"
       inkscape:connector-curvature="0" />
    <path
       inkscape:connector-curvature="0"
       d="M 3.8629891,0.89931944 3.8482301,0.97607034 3.7921431,1.2565065 C 3.7021091,1.2919295 3.6209295,1.3417445 3.5471305,1.4011524 L 3.2725984,1.3066894 3.1987994,1.2830734 3.1604244,1.3509684 2.971499,1.6756841 2.933124,1.7435791 2.989211,1.7937631 3.2017521,1.9797364 c -0.00775,0.048338 -0.017711,0.096677 -0.017711,0.147598 0,0.050922 0.00997,0.099259 0.017711,0.147598 l -0.2125411,0.1859734 -0.056087,0.050184 0.038375,0.067895 0.1889254,0.3247155 0.038375,0.067895 0.073799,-0.023616 0.2745321,-0.094463 c 0.073799,0.059408 0.1549779,0.1092225 0.2450126,0.1446459 l 0.056087,0.2804361 0.014759,0.076751 h 0.5313527 l 0.014759,-0.076751 0.056087,-0.2804361 C 4.5552228,2.9627392 4.6364019,2.9129242 4.7102009,2.853516 L 4.984733,2.947979 5.058532,2.971595 5.096907,2.9037 5.2858326,2.5789844 5.3242076,2.5110894 5.2681206,2.4609064 5.0555795,2.2749329 c 0.00775,-0.048338 0.017711,-0.096677 0.017711,-0.147598 0,-0.050922 -0.00997,-0.09926 -0.017711,-0.1475979 L 5.2681209,1.7937633 5.3242079,1.74358 5.2858319,1.675685 5.0969067,1.3509694 5.0585317,1.2830744 4.9847317,1.30669 4.7101996,1.4011526 C 4.6364017,1.3417445 4.555223,1.2919301 4.4651883,1.2565065 L 4.4091013,0.97607037 4.3943423,0.89931947 Z M 4.0164909,1.0882448 h 0.224349 l 0.047231,0.2450126 0.011808,0.056087 0.053135,0.017711 c 0.1073777,0.033578 0.2047921,0.090403 0.2863399,0.1653098 l 0.041328,0.038376 0.053135,-0.017712 0.2391085,-0.082655 0.1121743,0.1918773 -0.1889254,0.1682617 -0.044279,0.035423 0.014758,0.056087 c 0.012176,0.053873 0.017711,0.1088535 0.017711,0.1653097 0,0.056456 -0.00553,0.1114363 -0.017711,0.1653098 l -0.011808,0.056087 0.041328,0.035423 0.1889255,0.1682616 -0.1121744,0.1918774 -0.2391084,-0.082655 -0.053135,-0.017712 -0.041328,0.038375 c -0.081546,0.074909 -0.1789615,0.1317346 -0.286339,0.1653131 l -0.053135,0.017711 -0.011808,0.056087 -0.047231,0.2450125 H 4.0164909 L 3.96926,2.9214114 3.9574522,2.8653242 3.9043168,2.8476125 C 3.7969389,2.814034 3.6995243,2.7572087 3.6179765,2.6823028 L 3.5766485,2.6439278 3.5235135,2.6616388 3.2844049,2.7442928 3.1722306,2.5524154 3.3611562,2.3841538 3.4054352,2.3487306 3.3906762,2.2926435 c -0.012177,-0.053873 -0.017711,-0.1088536 -0.017711,-0.1653097 0,-0.056456 0.00553,-0.1114363 0.017711,-0.1653097 l 0.014759,-0.056087 -0.044279,-0.035423 -0.1889256,-0.1682616 0.1121743,-0.1918774 0.2391086,0.082654 0.053136,0.017712 0.041328,-0.038376 C 3.6995245,1.4974594 3.7969392,1.4406344 3.9043167,1.4070558 l 0.053135,-0.017712 0.011808,-0.056087 z M 4.1286652,1.655021 c -0.2597725,0 -0.4723135,0.212541 -0.4723135,0.4723134 0,0.2597724 0.212541,0.4723134 0.4723135,0.4723134 0.2597724,0 0.4723135,-0.212541 0.4723135,-0.4723134 0,-0.2597724 -0.2125411,-0.4723134 -0.4723135,-0.4723134 z m 0,0.1889253 c 0.1575608,0 0.2833881,0.1258273 0.2833881,0.2833881 0,0.1575608 -0.1258273,0.2833881 -0.2833881,0.2833881 -0.1575609,0 -0.2833881,-0.1258273 -0.2833881,-0.2833881 0,-0.1575608 0.1258272,-0.2833881 0.2833881,-0.2833881 z"
       id="path2"
       style="display:inline;fill:#808080;stroke-width:0.0944627" />
  </g>
</svg>
